HIERARCHY
ROOT Hips
{
	OFFSET 0.000000 0.000000 0.000000
	CHANNELS 6 Xposition Yposition Zposition Yrotation Xrotation Zrotation 
	JOINT LeftHip
	{
		OFFSET 0.077119 0.000138 -0.000015
		CHANNELS 3 Yrotation Xrotation Zrotation
		JOINT LeftKnee
		{
			OFFSET 0.000000 -0.426014 0.000072
			CHANNELS 3 Yrotation Xrotation Zrotation
			JOINT LeftAnkle
			{
				OFFSET 0.000000 -0.387606 0.000906
				CHANNELS 3 Yrotation Xrotation Zrotation
				JOINT LeftToe
				{
					OFFSET 0.000000 -0.086837 0.172228
					CHANNELS 3 Yrotation Xrotation Zrotation
					End Site
					{
						OFFSET 0.000000 0.000000 0.000000
					}
				}
			}
		}
	}
	JOINT RightHip
	{
		OFFSET -0.077119 0.000158 -0.000018
		CHANNELS 3 Yrotation Xrotation Zrotation
		JOINT RightKnee
		{
			OFFSET 0.000000 -0.426014 0.000072
			CHANNELS 3 Yrotation Xrotation Zrotation
			JOINT RightAnkle
			{
				OFFSET 0.000000 -0.387606 0.000906
				CHANNELS 3 Yrotation Xrotation Zrotation
				JOINT RightToe
				{
					OFFSET 0.000000 -0.086837 0.172228
					CHANNELS 3 Yrotation Xrotation Zrotation
					End Site
					{
						OFFSET 0.000000 0.000000 0.000000
					}
				}
			}
		}
	}
	JOINT Chest
	{
		OFFSET 0.000000 0.093501 -0.010389
		CHANNELS 3 Yrotation Xrotation Zrotation
		JOINT Chest3
		{
			OFFSET 0.000000 0.181972 -0.008899
			CHANNELS 3 Yrotation Xrotation Zrotation
			JOINT Chest4
			{
				OFFSET 0.000000 0.086970 -0.000061
				CHANNELS 3 Yrotation Xrotation Zrotation
				JOINT Neck
				{
					OFFSET 0.000000 0.116360 0.000000
					CHANNELS 3 Yrotation Xrotation Zrotation
					JOINT Head
					{
						OFFSET 0.000000 0.079760 0.000228
						CHANNELS 3 Yrotation Xrotation Zrotation
						End Site
						{
							OFFSET 0.000000 0.000000 0.000000
						}
					}
				}
				JOINT LeftCollar
				{
					OFFSET 0.021903 0.065262 0.000000
					CHANNELS 3 Yrotation Xrotation Zrotation
					JOINT LeftShoulder
					{
						OFFSET 0.106219 0.000000 0.000000
						CHANNELS 3 Yrotation Xrotation Zrotation
						JOINT LeftElbow
						{
							OFFSET 0.266680 0.000000 0.000000
							CHANNELS 3 Yrotation Xrotation Zrotation
							JOINT LeftWrist
							{
								OFFSET 0.205457 0.000000 0.000046
								CHANNELS 3 Yrotation Xrotation Zrotation
								End Site
								{
									OFFSET 0.000000 0.000000 0.000000
								}
							}
						}
					}
				}
				JOINT RightCollar
				{
					OFFSET -0.021903 0.065262 0.000000
					CHANNELS 3 Yrotation Xrotation Zrotation
					JOINT RightShoulder
					{
						OFFSET -0.106219 0.000000 0.000000
						CHANNELS 3 Yrotation Xrotation Zrotation
						JOINT RightElbow
						{
							OFFSET -0.266680 0.000000 0.000000
							CHANNELS 3 Yrotation Xrotation Zrotation
							JOINT RightWrist
							{
								OFFSET -0.205457 0.000000 0.000046
								CHANNELS 3 Yrotation Xrotation Zrotation
								End Site
								{
									OFFSET 0.000000 0.000000 0.000000
								}
							}
						}
					}
				}
			}
		}
	}
}
MOTION
Frames: 13
Frame Time: 0.016667
0.000000 0.000000 0.000000 -20.342137 -5.763594 -2.399175 11.144839 10.432772 8.861359 -2.878243 1.519654 1.063098 12.820312 -6.394801 -6.193828 0.000000 -0.000000 0.000000 -2.577185 4.814286 -3.808467 -1.044829 4.723528 -0.155737 -2.778065 -5.006656 6.188635 0.000000 -0.000000 0.000000 -2.811804 6.265672 -0.458858 -2.455751 -0.261420 -0.390566 -0.938571 7.922435 -0.213944 -15.508207 16.258361 8.587571 -31.443863 -1.899752 20.836523 0.143722 -1.097705 -12.655450 23.704145 -0.183771 -63.937908 -49.618723 -43.606166 -65.785232 -10.512992 -5.880484 35.457890 -0.972647 -2.772190 9.810460 -24.757574 -6.793792 57.985480 67.448517 -26.752593 64.676239 -9.486951 10.812369 -11.008482 
0.000000 0.000000 0.000000 -20.202651 -5.737197 -2.352061 11.036959 10.393638 8.771841 -2.904644 1.489866 1.053966 12.793061 -6.364768 -6.152507 0.000000 -0.000000 0.000000 -2.590728 4.785582 -3.876800 -1.044010 4.715689 -0.161806 -2.910665 -4.997026 6.202548 0.000000 -0.000000 0.000000 -2.793855 6.309168 -0.487075 -2.437071 -0.222680 -0.415478 -0.932161 7.937080 -0.222663 -15.574645 16.245874 8.613871 -31.575297 -1.892820 20.905139 0.136750 -1.113293 -12.622747 23.672145 -0.105781 -63.959459 -49.681878 -43.688697 -65.720525 -10.527343 -5.871020 35.465478 -0.931351 -2.773502 9.840094 -24.597558 -6.810839 58.091615 67.437477 -26.891448 64.658849 -9.379060 10.702702 -11.052987 
0.000000 0.000000 0.000000 -20.078534 -5.705031 -2.308104 10.931267 10.345314 8.682110 -2.916045 1.469373 1.049084 12.764936 -6.338141 -6.113494 0.000000 -0.000000 0.000000 -2.605331 4.745305 -3.942405 -1.037344 4.712237 -0.165454 -3.031396 -4.985452 6.215826 0.000000 -0.000000 0.000000 -2.780039 6.354937 -0.511648 -2.422411 -0.181925 -0.437133 -0.927176 7.952464 -0.230253 -15.649781 16.227232 8.640437 -31.724239 -1.894009 20.978323 0.126823 -1.123130 -12.589927 23.645218 -0.021000 -63.977696 -49.742832 -43.771288 -65.656592 -10.545120 -5.859294 35.479928 -0.882554 -2.749314 9.863198 -24.405788 -6.848381 58.212969 67.469502 -27.011342 64.621318 -9.234312 10.575747 -11.079955 
0.000000 0.000000 0.000000 -19.979614 -5.675253 -2.269917 10.850020 10.294362 8.604961 -2.935107 1.458410 1.041659 12.747449 -6.315105 -6.075356 0.000000 -0.000000 0.000000 -2.617640 4.698576 -4.000225 -1.036811 4.717373 -0.169164 -3.121155 -4.970703 6.229221 0.000000 -0.000000 0.000000 -2.767570 6.401314 -0.533007 -2.409249 -0.140640 -0.455938 -0.922677 7.968033 -0.236805 -15.725463 16.208496 8.665576 -31.873788 -1.895522 21.049096 0.115069 -1.134612 -12.557555 23.637712 0.057571 -63.981803 -49.777837 -43.833983 -65.615712 -10.563049 -5.844717 35.498041 -0.839098 -2.720416 9.886979 -24.199182 -6.888759 58.337723 67.506248 -27.145456 64.590890 -9.063507 10.461948 -11.062609 
0.000000 0.000000 0.000000 -19.907909 -5.650096 -2.238969 10.806949 10.239138 8.547454 -2.976530 1.459889 1.027348 12.743895 -6.295772 -6.036256 0.000000 -0.000000 0.000000 -2.622639 4.644988 -4.047323 -1.053987 4.735438 -0.174237 -3.170916 -4.951488 6.243469 0.000000 -0.000000 0.000000 -2.756496 6.449474 -0.550978 -2.397651 -0.097781 -0.471730 -0.918684 7.984176 -0.242255 -15.801085 16.188945 8.690665 -32.023413 -1.898417 21.119990 0.100528 -1.151496 -12.525029 23.659899 0.125857 -63.966702 -49.775893 -43.867237 -65.607230 -10.581387 -5.826043 35.518975 -0.803318 -2.691551 9.916026 -23.968975 -6.930149 58.459624 67.542354 -27.307735 64.570689 -8.862873 10.379388 -10.969519 
0.000000 0.000000 0.000000 -19.861411 -5.627252 -2.213840 10.788281 10.181367 8.502487 -3.025597 1.470900 1.010475 12.750971 -6.280059 -5.998007 0.000000 -0.000000 0.000000 -2.625337 4.584861 -4.086611 -1.077289 4.762093 -0.179373 -3.189703 -4.929160 6.257881 0.000000 -0.000000 0.000000 -2.746740 6.498188 -0.565792 -2.387529 -0.054437 -0.484723 -0.915172 8.000488 -0.246686 -15.877241 16.169317 8.714365 -32.173644 -1.901636 21.188513 0.084154 -1.169971 -12.492927 23.701625 0.187870 -63.937657 -49.748067 -43.880395 -65.621656 -10.599907 -5.804549 35.543613 -0.772859 -2.657923 9.945763 -23.723907 -6.974270 58.584776 67.583478 -27.484179 64.557534 -8.636939 10.309441 -10.832025 
0.000000 0.000000 0.000000 -19.843918 -5.608053 -2.192844 10.774973 10.132671 8.461629 -3.060838 1.482956 0.997268 12.770291 -6.267870 -5.964637 0.000000 -0.000000 0.000000 -2.637430 4.524377 -4.121733 -1.083969 4.788518 -0.183140 -3.185496 -4.906453 6.271080 0.000000 -0.000000 0.000000 -2.735321 6.542203 -0.578523 -2.376127 -0.015279 -0.495896 -0.911128 8.015221 -0.250417 -15.947603 16.157814 8.730812 -32.309138 -1.894460 21.239993 0.069908 -1.186086 -12.463632 23.746675 0.242734 -63.899421 -49.703732 -43.881791 -65.652978 -10.614568 -5.783390 35.571350 -0.753595 -2.626003 9.969574 -23.507264 -7.008264 58.720795 67.607525 -27.666636 64.569659 -8.409069 10.227374 -10.717265 
0.000000 0.000000 0.000000 -19.856660 -5.592026 -2.175696 10.762285 10.095786 8.422531 -3.075077 1.493720 0.989884 12.800680 -6.259837 -5.938223 0.000000 -0.000000 0.000000 -2.671076 4.463736 -4.154208 -1.061884 4.813068 -0.185447 -3.157371 -4.885272 6.282714 0.000000 -0.000000 0.000000 -2.722242 6.578315 -0.589429 -2.363427 0.016848 -0.505490 -0.906555 8.027308 -0.253553 -16.011024 16.159829 8.736409 -32.425313 -1.868922 21.266028 0.059336 -1.197100 -12.437587 23.792339 0.291810 -63.849317 -49.637460 -43.870849 -65.705073 -10.623040 -5.762765 35.606169 -0.750993 -2.600115 9.982262 -23.330498 -7.027484 58.872071 67.591247 -27.853996 64.629951 -8.197017 10.126297 -10.640179 
0.000000 0.000000 0.000000 -19.898412 -5.579614 -2.162707 10.754914 10.067932 8.387586 -3.075497 1.505515 0.986190 12.843305 -6.255337 -5.916683 0.000000 -0.000000 0.000000 -2.714130 4.402660 -4.182370 -1.023177 4.837373 -0.186372 -3.106258 -4.863727 6.293156 0.000000 -0.000000 0.000000 -2.707474 6.609706 -0.598313 -2.349425 0.044773 -0.513323 -0.901448 8.037811 -0.256011 -16.068695 16.169912 8.734646 -32.526763 -1.833286 21.274833 0.050869 -1.205721 -12.414352 23.841382 0.333748 -63.790110 -49.554916 -43.847995 -65.773908 -10.627620 -5.742490 35.644133 -0.759669 -2.575864 9.989043 -23.182221 -7.036052 59.034925 67.556707 -28.047533 64.716280 -7.982908 10.013135 -10.585754 
0.000000 0.000000 0.000000 -19.969285 -5.573535 -2.153072 10.747973 10.052415 8.355503 -3.062182 1.516845 0.986010 12.903295 -6.252389 -5.897810 0.000000 -0.000000 0.000000 -2.741844 4.346636 -4.205122 -0.981533 4.857526 -0.184708 -3.042919 -4.838848 6.302108 0.000000 -0.000000 0.000000 -2.687995 6.640714 -0.605563 -2.331392 0.072345 -0.519741 -0.894778 8.048172 -0.257831 -16.117808 16.179979 8.730254 -32.611933 -1.801261 21.276633 0.043784 -1.216188 -12.394987 23.885750 0.363622 -63.734671 -49.481952 -43.823253 -65.841716 -10.631169 -5.725074 35.672732 -0.769218 -2.546644 9.998912 -23.071427 -7.034058 59.205193 67.549725 -28.242761 64.779383 -7.736230 9.884560 -10.576327 
0.000000 0.000000 0.000000 -20.075440 -5.575251 -2.146290 10.739401 10.052126 8.325035 -3.033986 1.526444 0.989962 12.988008 -6.249765 -5.880770 0.000000 -0.000000 0.000000 -2.737521 4.296707 -4.221379 -0.942896 4.873125 -0.179719 -2.971389 -4.809245 6.309357 0.000000 -0.000000 0.000000 -2.659402 6.674309 -0.611082 -2.305419 0.102207 -0.524671 -0.885065 8.059381 -0.258871 -16.158537 16.185934 8.725526 -32.682898 -1.779346 21.276896 0.038914 -1.232480 -12.379772 23.921749 0.377394 -63.681952 -49.423556 -43.797228 -65.908844 -10.634125 -5.710968 35.686292 -0.773169 -2.506874 10.016077 -23.006342 -7.019728 59.386085 67.599691 -28.441982 64.796312 -7.432005 9.743468 -10.628988 
0.000000 0.000000 0.000000 -20.210722 -5.583300 -2.142834 10.731231 10.064137 8.297370 -2.992056 1.535585 0.997427 13.090086 -6.248685 -5.866398 0.000000 -0.000000 0.000000 -2.717889 4.251851 -4.232234 -0.901328 4.884584 -0.172136 -2.887643 -4.776293 6.315145 0.000000 -0.000000 0.000000 -2.626087 6.707510 -0.615005 -2.275404 0.131712 -0.528223 -0.873788 8.070448 -0.259289 -16.190731 16.191840 8.718126 -32.737629 -1.761154 21.270167 0.035409 -1.250612 -12.368418 23.953041 0.379155 -63.633015 -49.374748 -43.769451 -65.974932 -10.636001 -5.699645 35.690469 -0.777968 -2.462115 10.036277 -22.978566 -6.994212 59.574557 67.677192 -28.642881 64.790105 -7.094659 9.587810 -10.726798 
0.000000 0.000000 0.000000 -20.356781 -5.596032 -2.143348 10.724730 10.083052 8.274876 -2.939924 1.546569 1.006367 13.192590 -6.250834 -5.854993 0.000000 -0.000000 0.000000 -2.708346 4.214474 -4.239916 -0.852692 4.889234 -0.162950 -2.790345 -4.741162 6.319849 0.000000 -0.000000 0.000000 -2.598214 6.735728 -0.618063 -2.250312 0.156789 -0.530995 -0.864355 8.079853 -0.259566 -16.211091 16.201853 8.705845 -32.768411 -1.741048 21.250316 0.030026 -1.262874 -12.361135 23.982556 0.376175 -63.603884 -49.346177 -43.748501 -66.021279 -10.638265 -5.692105 35.689724 -0.792578 -2.422465 10.055806 -22.972251 -6.962019 59.756965 67.740116 -28.834164 64.780210 -6.767893 9.406471 -10.841352 
